# xmcd
#
# Track frame offsets:
# 150
# 21641
# 47191
# 67517
# 88316
#
# Disc length: 1549 seconds
#
#
# Revision: 0
# Processed by: cddbd v1.5.2PL0 Copyright (c) Steve Scherf et al.
# Submitted via: FreeRIP 2.951 
#
DISCID=3e060b05
DTITLE=Steve Westaway - INdependent of the Heart
DYEAR=2003
DGENRE=Blues
TTITLE0=Independent of the Heart
TTITLE1=Nostalgic
TTITLE2=Give me Back my Heart
TTITLE3=Send me Down an Angel
TTITLE4=When this Long and Angry Day is Done
EXTD=
EXTT0=
EXTT1=
EXTT2=
EXTT3=
EXTT4=
PLAYORDER=
